<svg id="Layer_1" data-name="Layer 1" xmlns="http://www.w3.org/2000/svg" xmlns:xlink="http://www.w3.org/1999/xlink" width="88.76" height="92.69" viewBox="0 0 88.76 92.69"><defs><style>.cls-1{fill:none;}.cls-2{clip-path:url(#clip-path);}.cls-3{fill:url(#linear-gradient);}.cls-4{clip-path:url(#clip-path-2);}.cls-5{fill:url(#linear-gradient-2);}.cls-6{clip-path:url(#clip-path-3);}.cls-7{fill:#9f46eb;}.cls-8{fill:#ffc900;}.cls-9{clip-path:url(#clip-path-4);}.cls-10{fill:url(#linear-gradient-3);}.cls-11{fill:#ff0045;}</style><clipPath id="clip-path"><path class="cls-1" d="M9,67.21c7.79,13.07,11.82,2.4,14,8.8.11,1.74,0,4,1.23,5.27C27.8,84.86,30,77.18,32,82c.73,1.54,1.94,3.75,10.48,4.2A41.84,41.84,0,0,0,77.6,69.52c-22.43,1.83-32.22-6.72-36.69-9.39C29.36,66,13.5,64,3.83,55.77A41.46,41.46,0,0,0,9,67.21"/></clipPath><linearGradient id="linear-gradient" x1="-50.44" y1="1032.59" x2="-49.44" y2="1032.59" gradientTransform="matrix(73.77, 0, 0, -73.77, 3724.48, 76242.65)" gradientUnits="userSpaceOnUse"><stop offset="0" stop-color="#9f46eb"/><stop offset="1" stop-color="#ff467c"/></linearGradient><clipPath id="clip-path-2"><path class="cls-1" d="M61,28.42a41.12,41.12,0,0,1-1.47,11.17c5,11.21-6.81,23.87-18.65,20.54,3.18,2.78,15.22,11.14,36.69,9.39C96.82,45.65,80.59,6.3,50.18,3A35.07,35.07,0,0,1,61,28.42"/></clipPath><linearGradient id="linear-gradient-2" x1="-50.44" y1="1032.53" x2="-49.44" y2="1032.53" gradientTransform="matrix(0, -70.84, -70.84, 0, 73208.89, -3500.5)" gradientUnits="userSpaceOnUse"><stop offset="0" stop-color="#ff467c"/><stop offset="0.68" stop-color="#fba304"/><stop offset="1" stop-color="#ffc900"/></linearGradient><clipPath id="clip-path-3"><rect class="cls-1" x="-50.44" y="-47.41" width="1920" height="1080"/></clipPath><clipPath id="clip-path-4"><path class="cls-1" d="M2.27,44.43A41.63,41.63,0,0,0,3.83,55.77C13.5,64,29.36,66,40.9,60.13h0C14.81,49.59,14.38,20.25,33.65,13.87c12.27-4,27.56,4.94,27,19.58A35.3,35.3,0,0,0,50.18,3C25.23-.8,2.06,19.15,2.27,44.43"/></clipPath><linearGradient id="linear-gradient-3" x1="-50.44" y1="1032.59" x2="-49.44" y2="1032.59" gradientTransform="matrix(-68.48, 0, 0, 68.48, -3388.46, -70683.32)" gradientUnits="userSpaceOnUse"><stop offset="0" stop-color="#ffca00"/><stop offset="0.5" stop-color="#90d20e"/><stop offset="1" stop-color="#24acff"/></linearGradient></defs><g class="cls-2"><rect class="cls-3" x="3.83" y="55.77" width="73.77" height="30.5"/></g><g class="cls-4"><rect class="cls-5" x="30.73" y="-2.7" width="66.13" height="79.7" transform="translate(-9.14 25.76) rotate(-21.34)"/></g><g class="cls-6"><path class="cls-7" d="M29.42,87.57c.06-4.47-7-4.47-6.89,0s7,4.46,6.89,0"/><path class="cls-8" d="M33.65,13.87c-18.75,6.2-19,34.2,5.06,45.41h0C14.55,44.75,46,14.58,59.56,39.55c6-16.71-11.31-30.61-25.91-25.68"/></g><g class="cls-9"><rect class="cls-10" x="-10.58" y="-9.14" width="84.65" height="84.43" transform="translate(-14.03 35.62) rotate(-49.36)"/></g><g class="cls-6"><path class="cls-11" d="M60.72,45.45C61,55.22,50.15,63.62,40.91,60.13c7.83-3,16.33-12.55,18.65-20.54a15.27,15.27,0,0,1,1.16,5.86"/></g></svg>